PathFileType	4	(x/y/z)	Passive_Pref0006.trc
DataRate	CameraRate	NumFrames	NumMarkers	Units	OrigDataRate	OrigDataStartFrame	OrigNumFrames
240	240	6	50	mm	240	1	300
Frame#	Time	R_AC			L_AC			HEAD			STERN			C7			L_IC			R_IC			L_ASIS			R_ASIS			L_GT			R_GT			R_PSIS			L_PSIS			SACRAL			L_LAT_KNEE			L_MED_KNEE			R_LAT_KNEE			R_MED_KNEE			L_LAT_ANK			L_MED_ANK			R_LAT_ANK			R_MED_ANK			L_THIGH_PROX_POST			L_THIGH_PROX_ANT			L_THIGH_DIST_ANT			L_THIGH_DIST_POST			R_THIGH_PROX_POST			R_THIGH_PROX_ANT			R_THIGH_DIST_ANT			R_THIGH_DIST_POST			L_SHANK_PROX_POST			L_SHANK_PROX_ANT			L_SHANK_DIST_ANT			L_SHANK_DIST_POST			R_SHANK_PROX_POST			R_SHANK_PROX_ANT			R_SHANK_DIST_ANT			R_SHANK_DIST_POST			L_HEEL_LAT			L_HEEL_SUP			L_HEEL_MED			R_HEEL_LAT			R_HEEL_SUP			R_HEEL_MED			L_1ST_MET			L_5TH_MET			L_TOE			R_1ST_MET			R_5TH_MET			R_TOE			
		X1	Y1	Z1	X2	Y2	Z2	X3	Y3	Z3	X4	Y4	Z4	X5	Y5	Z5	X6	Y6	Z6	X7	Y7	Z7	X8	Y8	Z8	X9	Y9	Z9	X10	Y10	Z10	X11	Y11	Z11	X12	Y12	Z12	X13	Y13	Z13	X14	Y14	Z14	X15	Y15	Z15	X16	Y16	Z16	X17	Y17	Z17	X18	Y18	Z18	X19	Y19	Z19	X20	Y20	Z20	X21	Y21	Z21	X22	Y22	Z22	X23	Y23	Z23	X24	Y24	Z24	X25	Y25	Z25	X26	Y26	Z26	X27	Y27	Z27	X28	Y28	Z28	X29	Y29	Z29	X30	Y30	Z30	X31	Y31	Z31	X32	Y32	Z32	X33	Y33	Z33	X34	Y34	Z34	X35	Y35	Z35	X36	Y36	Z36	X37	Y37	Z37	X38	Y38	Z38	X39	Y39	Z39	X40	Y40	Z40	X41	Y41	Z41	X42	Y42	Z42	X43	Y43	Z43	X44	Y44	Z44	X45	Y45	Z45	X46	Y46	Z46	X47	Y47	Z47	X48	Y48	Z48	X49	Y49	Z49	X50	Y50	Z50	

1	0	-761.98	1495	516.71	-809.5	1510.8	114.47	-722.75	1815.5	322.65	-697.02	1450.6	318.18	-850.12	1544.2	328.75	-819.41	1069.2	157.75	-806.69	1098.7	497.36	-735.58	1002.1	201.46	-746.05	1008.8	470.4	-818.1	912.43	142.79	-874.6	947.85	508.59	-959.14	1018	355.15	-962.45	1002.4	270.05	-971.41	977.87	315.46	-629.62	550.34	196.09	-610.33	572.15	333.56	-996.75	553.44	470.61	-978.3	550.18	337.96	-477.74	131.05	216.86	-487.66	122.51	298.54	-1208.6	136.43	404.38	-1165.6	156.37	306.51	-717.87	765.55	159.45	-666.94	789.86	197.35	-640.82	723.2	209.77	-687.28	698.72	175.57	-952.47	826.68	479.9	-898.33	812	509.91	-923.44	741.62	499.2	-969.54	755.32	471.11	-602.89	502.1	208.21	-566.21	550.43	220.77	-536.18	490.77	233.96	-571.98	448.24	211.17	-1109.5	422.88	465.53	-1056.2	400.49	465.93	-1086.5	332.44	452.16	-1138.6	352.12	450.23	-502.81	45.405	212.99	-531.2	60.309	246.44	-514.14	32.889	279.83	-1291.8	121.64	362.46	-1277.7	150.03	330.4	-1262.6	119.81	302.69	-318.91	117.86	332.97	-317.71	121.3	214.47	-273.81	167.85	298.65	-1064.1	44.653	314.46	-1110.8	35.609	429.63	-1016.1	39.239	373.87
2	0.0041806	-756.97	1494.4	516.1	-804.71	1510.1	113.87	-718.18	1814.9	322.06	-692.06	1450	317.59	-845.26	1543.5	328.16	-813.86	1068.4	157.34	-801.67	1098	496.96	-730.06	1001.4	201.09	-740.75	1008	470.23	-812.69	911.54	142.49	-869.48	947.22	508.16	-953.74	1017.2	354.61	-956.4	1001.5	269.56	-966.01	977.08	314.89	-625.99	549.25	196.25	-607.28	570.63	333.7	-992.39	553.16	470.49	-973.67	549.64	337.9	-475.98	129.86	216.78	-486.16	121.7	298.68	-1207.3	137.64	404.61	-1164.1	157.25	306.82	-713.34	764.25	159.39	-662.17	788.35	197.15	-636.46	721.57	209.69	-683.04	697.3	175.55	-947.51	826.29	479.39	-893.45	811.55	509.55	-918.7	741.2	498.89	-964.72	754.97	470.66	-599.53	500.87	208.39	-562.65	549.02	221.13	-532.98	489.18	234.34	-568.89	446.87	211.37	-1106	423.46	465.5	-1052.9	400.62	465.96	-1083.7	332.8	452.26	-1135.7	352.9	450.24	-501.91	44.876	212.82	-530	60.39	245.99	-513.69	32.987	279.86	-1290.6	123.71	362.56	-1276.3	152.1	330.55	-1261.3	121.7	302.85	-317.73	114.95	333.54	-316.14	118.58	214.99	-272.12	164.7	299.37	-1064	44.516	314.37	-1110.6	35.642	429.74	-1016	39.233	373.8
3	0.0083612	-751.76	1493.8	515.46	-799.7	1509.3	113.25	-713.41	1814.2	321.44	-686.89	1449.4	316.98	-840.2	1542.7	327.54	-808.04	1067.6	156.92	-796.39	1097.2	496.55	-724.3	1000.6	200.71	-735.2	1007.1	470.04	-807.07	910.64	142.17	-864.11	946.57	507.72	-948.1	1016.4	354.06	-950.14	1000.7	269.06	-960.36	976.29	314.31	-622.22	548.17	196.41	-604.09	569.11	333.85	-987.79	552.87	470.37	-968.78	549.08	337.84	-474.18	128.65	216.69	-484.62	120.87	298.82	-1206	138.92	404.86	-1162.4	158.19	307.15	-708.63	762.94	159.32	-657.22	786.82	196.93	-631.91	719.91	209.59	-678.63	695.87	175.52	-942.31	825.89	478.86	-888.33	811.09	509.16	-913.72	740.77	498.57	-959.65	754.61	470.19	-596.04	499.63	208.57	-558.95	547.59	221.5	-529.64	487.58	234.73	-565.67	445.49	211.58	-1102.3	424.07	465.47	-1049.4	400.77	466.01	-1080.8	333.19	452.37	-1132.6	353.72	450.26	-500.99	44.34	212.65	-528.76	60.475	245.55	-513.23	33.093	279.89	-1289.3	125.92	362.68	-1274.8	154.28	330.72	-1260	123.71	303.01	-316.53	111.96	334.12	-314.55	115.8	215.52	-270.38	161.47	300.1	-1063.8	44.366	314.28	-1110.4	35.679	429.85	-1016	39.226	373.72
4	0.012542	-746.38	1493.2	514.79	-794.52	1508.5	112.59	-708.47	1813.6	320.8	-681.53	1448.8	316.33	-834.96	1542	326.89	-801.99	1066.8	156.47	-790.87	1096.5	496.11	-718.33	999.76	200.31	-729.43	1006.3	469.82	-801.28	909.76	141.84	-858.51	945.91	507.27	-942.24	1015.7	353.5	-943.7	999.89	268.55	-954.51	975.52	313.73	-618.33	547.1	196.56	-600.77	567.62	334	-982.97	552.56	470.27	-963.66	548.49	337.79	-472.35	127.43	216.6	-483.04	120.02	298.96	-1204.5	140.28	405.13	-1160.7	159.18	307.5	-703.76	761.64	159.23	-652.11	785.29	196.69	-627.22	718.26	209.47	-674.09	694.45	175.48	-936.88	825.48	478.3	-882.99	810.62	508.75	-908.51	740.32	498.22	-954.36	754.22	469.7	-592.43	498.42	208.74	-555.14	546.16	221.86	-526.21	485.98	235.12	-562.36	444.12	211.78	-1098.4	424.69	465.45	-1045.7	400.92	466.07	-1077.7	333.6	452.49	-1129.3	354.58	450.28	-500.05	43.804	212.48	-527.51	60.564	245.1	-512.74	33.206	279.9	-1287.9	128.26	362.81	-1273.1	156.57	330.9	-1258.5	125.84	303.19	-315.31	108.94	334.7	-312.94	112.98	216.05	-268.63	158.17	300.85	-1063.7	44.203	314.19	-1110.2	35.723	429.97	-1015.9	39.217	373.65
5	0.016722	-740.86	1492.6	514.1	-789.18	1507.7	111.91	-703.38	1813.1	320.13	-676.02	1448.2	315.66	-829.57	1541.3	326.21	-795.75	1066	156.02	-785.13	1095.8	495.66	-712.21	998.97	199.89	-723.46	1005.4	469.58	-795.35	908.91	141.5	-852.72	945.24	506.81	-936.19	1014.9	352.96	-937.13	999.14	268.03	-948.48	974.8	313.15	-614.33	546.07	196.7	-597.34	566.17	334.15	-977.93	552.25	470.17	-958.33	547.88	337.75	-470.5	126.22	216.5	-481.46	119.16	299.09	-1203	141.7	405.41	-1158.8	160.21	307.88	-698.77	760.37	159.13	-646.87	783.78	196.43	-622.4	716.64	209.31	-669.44	693.04	175.42	-931.25	825.05	477.73	-877.44	810.14	508.33	-903.1	739.87	497.87	-948.86	753.82	469.2	-588.73	497.23	208.91	-551.23	544.77	222.22	-522.69	484.4	235.49	-558.98	442.77	211.97	-1094.4	425.35	465.44	-1041.8	401.08	466.14	-1074.4	334.03	452.63	-1125.9	355.48	450.31	-499.11	43.274	212.31	-526.24	60.657	244.67	-512.24	33.327	279.89	-1286.3	130.73	362.96	-1271.4	158.98	331.11	-1256.9	128.08	303.38	-314.1	105.91	335.27	-311.34	110.14	216.59	-266.87	154.86	301.59	-1063.5	44.028	314.09	-1109.9	35.777	430.1	-1015.8	39.205	373.57
6	0.020903	-735.22	1492.1	513.39	-783.72	1507	111.21	-698.18	1812.6	319.44	-670.38	1447.7	314.98	-824.07	1540.6	325.51	-789.35	1065.2	155.54	-779.19	1095.1	495.2	-705.94	998.2	199.45	-717.32	1004.5	469.31	-789.31	908.12	141.14	-846.75	944.58	506.34	-929.98	1014.2	352.42	-930.48	998.46	267.53	-942.3	974.12	312.58	-610.26	545.09	196.83	-593.81	564.8	334.3	-972.69	551.92	470.1	-952.79	547.23	337.72	-468.66	125.02	216.4	-479.86	118.3	299.2	-1201.3	143.18	405.72	-1156.8	161.3	308.29	-693.68	759.15	159.01	-641.55	782.33	196.15	-617.47	715.05	209.13	-664.71	691.69	175.35	-925.44	824.61	477.14	-871.72	809.66	507.88	-897.5	739.41	497.5	-943.17	753.41	468.69	-584.97	496.1	209.06	-547.24	543.41	222.56	-519.11	482.87	235.85	-555.53	441.48	212.16	-1090.1	426.01	465.44	-1037.8	401.26	466.24	-1071	334.48	452.78	-1122.3	356.4	450.35	-498.17	42.759	212.14	-524.98	60.756	244.25	-511.73	33.456	279.88	-1284.7	133.34	363.13	-1269.4	161.5	331.33	-1255.3	130.44	303.58	-312.91	102.91	335.83	-309.75	107.31	217.12	-265.12	151.54	302.32	-1063.3	43.841	314	-1109.7	35.842	430.23	-1015.8	39.188	373.49
